<svg width="25" height="25" viewBox="0 0 25 25" fill="none" xmlns="http://www.w3.org/2000/svg">
<path d="M19.7917 4.16667H5.20834C4.37953 4.16667 3.58468 4.49591 2.99863 5.08196C2.41258 5.66801 2.08334 6.46287 2.08334 7.29167V17.7083C2.08334 18.5371 2.41258 19.332 2.99863 19.918C3.58468 20.5041 4.37953 20.8333 5.20834 20.8333H19.7917C20.6205 20.8333 21.4153 20.5041 22.0014 19.918C22.5874 19.332 22.9167 18.5371 22.9167 17.7083V7.29167C22.9167 6.46287 22.5874 5.66801 22.0014 5.08196C21.4153 4.49591 20.6205 4.16667 19.7917 4.16667ZM19.0938 6.25L12.5 11.1979L5.90625 6.25H19.0938ZM19.7917 18.75H5.20834C4.93207 18.75 4.66712 18.6403 4.47177 18.4449C4.27642 18.2496 4.16667 17.9846 4.16667 17.7083V7.55208L11.875 13.3333C12.0553 13.4686 12.2746 13.5417 12.5 13.5417C12.7254 13.5417 12.9447 13.4686 13.125 13.3333L20.8333 7.55208V17.7083C20.8333 17.9846 20.7236 18.2496 20.5282 18.4449C20.3329 18.6403 20.0679 18.75 19.7917 18.75Z" fill="#111111"/>
</svg>
