<svg width="24" height="25" viewBox="0 0 24 25" fill="none" xmlns="http://www.w3.org/2000/svg">
<path d="M16.24 22.9167C15.9748 22.9167 15.7204 22.8069 15.5329 22.6116C15.3454 22.4162 15.24 22.1513 15.24 21.875V19.1667C15.2711 18.8551 15.2391 18.5403 15.1461 18.2424C15.053 17.9446 14.9011 17.6704 14.7 17.4375C14.5755 17.2969 14.4906 17.1232 14.4546 16.9356C14.4186 16.748 14.4329 16.5537 14.4959 16.374C14.5589 16.1943 14.6682 16.0361 14.8118 15.9169C14.9554 15.7976 15.1278 15.7219 15.31 15.6979C17.75 15.3958 20 14.5833 20 10.1771C20.0008 9.35425 19.7676 8.54959 19.33 7.86458C18.9262 7.23399 18.7787 6.46236 18.92 5.71875C19.0101 5.23367 19.0101 4.73508 18.92 4.25C18.1712 4.51373 17.4662 4.89674 16.83 5.38542C16.7097 5.47439 16.572 5.53454 16.4268 5.56155C16.2816 5.58857 16.1324 5.58178 15.99 5.54167C14.1853 5.01048 12.2747 5.01048 10.47 5.54167C10.3276 5.58178 10.1784 5.58857 10.0332 5.56155C9.88797 5.53454 9.75028 5.47439 9.63 5.38542C8.98994 4.89108 8.27743 4.50767 7.52 4.25C7.4249 4.73457 7.4249 5.23418 7.52 5.71875C7.65109 6.47172 7.49696 7.24831 7.09 7.88542C6.65426 8.57523 6.4214 9.38258 6.42 10.2083C6.42 14.2604 8.3 15.3438 11.12 15.7188C11.3045 15.7426 11.479 15.8196 11.6239 15.941C11.7687 16.0625 11.8782 16.2236 11.94 16.4063C11.9981 16.5835 12.0093 16.7738 11.9724 16.9571C11.9354 17.1405 11.8517 17.31 11.73 17.4479C11.5355 17.6645 11.3862 17.9207 11.2915 18.2004C11.1969 18.4801 11.1589 18.7772 11.18 19.0729V21.875C11.18 22.1513 11.0746 22.4162 10.8871 22.6116C10.6996 22.8069 10.4452 22.9167 10.18 22.9167C9.91478 22.9167 9.66043 22.8069 9.47289 22.6116C9.28536 22.4162 9.18 22.1513 9.18 21.875V21.2813C8.19736 21.399 7.20203 21.2618 6.28258 20.882C5.36314 20.5021 4.5481 19.8914 3.91 19.1042C3.582 18.7255 3.18848 18.4145 2.75 18.1875C2.62262 18.1533 2.50295 18.0933 2.39783 18.0109C2.29271 17.9286 2.20419 17.8254 2.13733 17.7074C2.07047 17.5894 2.02658 17.4588 2.00817 17.3232C1.98975 17.1875 1.99717 17.0494 2.03 16.9167C2.06283 16.784 2.12043 16.6593 2.19951 16.5498C2.27859 16.4403 2.3776 16.3481 2.49088 16.2785C2.60417 16.2088 2.72952 16.1631 2.85977 16.1439C2.99002 16.1247 3.12262 16.1325 3.25 16.1667C4.01925 16.4586 4.7066 16.9455 5.25 17.5833C6.25 18.625 7.25 19.5417 9.15 19.1667C9.11659 18.6074 9.19491 18.047 9.38 17.5208C7.32 16.9792 4.38 15.4375 4.38 10.2292C4.37736 8.99545 4.72531 7.78851 5.38 6.76042C5.5016 6.57063 5.54817 6.33927 5.51 6.11458C5.30793 4.99018 5.42254 3.82889 5.84 2.77083C5.89672 2.62975 5.98258 2.50342 6.09146 2.4008C6.20034 2.29818 6.32958 2.2218 6.47 2.17708C6.81 2.07292 8.03 1.86458 10.34 3.42708C12.21 2.95834 14.16 2.95834 16.03 3.42708C18.34 1.86458 19.56 2.0625 19.89 2.17708C20.0304 2.2218 20.1597 2.29818 20.2685 2.4008C20.3774 2.50342 20.4633 2.62975 20.52 2.77083C20.9383 3.83233 21.0529 4.99719 20.85 6.125C20.8295 6.22662 20.8287 6.33146 20.8476 6.43341C20.8665 6.53536 20.9047 6.63236 20.96 6.71875C21.6166 7.7498 21.9646 8.96065 21.96 10.1979C21.96 15.4792 19.04 17.0104 16.96 17.4896C17.1432 18.0485 17.218 18.6399 17.18 19.2292V21.875C17.1805 22.1408 17.0834 22.3967 16.9086 22.5903C16.7339 22.784 16.4947 22.9007 16.24 22.9167Z" fill="#111111"/>
</svg>
