<svg width="24" height="25" viewBox="0 0 24 25" fill="none" xmlns="http://www.w3.org/2000/svg">
<path d="M20 22.9167H18.33C17.7996 22.9167 17.2909 22.6972 16.9158 22.3065C16.5407 21.9158 16.33 21.3859 16.33 20.8333V15.2396C16.3389 15.0202 16.2753 14.8043 16.1497 14.6279C16.0241 14.4516 15.8442 14.3255 15.64 14.2708C15.5212 14.252 15.4 14.2599 15.2844 14.2941C15.1688 14.3282 15.0616 14.3878 14.97 14.4688C14.8757 14.5521 14.8 14.6558 14.7482 14.7728C14.6964 14.8897 14.6697 15.017 14.67 15.1458V20.8333C14.67 21.3859 14.4593 21.9158 14.0842 22.3065C13.7091 22.6972 13.2004 22.9167 12.67 22.9167H11C10.4696 22.9167 9.96086 22.6972 9.58579 22.3065C9.21071 21.9158 9 21.3859 9 20.8333V15.1458C9 13.3501 9.68482 11.6279 10.9038 10.3581C12.1228 9.08835 13.7761 8.375 15.5 8.375C17.2239 8.375 18.8772 9.08835 20.0962 10.3581C21.3152 11.6279 22 13.3501 22 15.1458V20.8333C22 21.3859 21.7893 21.9158 21.4142 22.3065C21.0391 22.6972 20.5304 22.9167 20 22.9167ZM15.5 12.1771C15.6565 12.1668 15.8135 12.1668 15.97 12.1771C16.6414 12.3116 17.2458 12.6881 17.6774 13.2404C18.1089 13.7928 18.34 14.4858 18.33 15.1979V20.8333H20V15.1458C20 13.9026 19.5259 12.7103 18.682 11.8313C17.8381 10.9522 16.6935 10.4583 15.5 10.4583C14.3065 10.4583 13.1619 10.9522 12.318 11.8313C11.4741 12.7103 11 13.9026 11 15.1458V20.8333H12.67V15.1458C12.67 14.3621 12.9675 13.6101 13.4977 13.0539C14.0278 12.4978 14.7476 12.1826 15.5 12.1771Z" fill="#111111"/>
<path d="M6 22.9167H4C3.46957 22.9167 2.96086 22.6972 2.58579 22.3065C2.21071 21.9158 2 21.3859 2 20.8333V10.4167C2 9.86413 2.21071 9.33423 2.58579 8.94353C2.96086 8.55283 3.46957 8.33333 4 8.33333H6C6.53043 8.33333 7.03914 8.55283 7.41421 8.94353C7.78929 9.33423 8 9.86413 8 10.4167V20.8333C8 21.3859 7.78929 21.9158 7.41421 22.3065C7.03914 22.6972 6.53043 22.9167 6 22.9167ZM4 10.4167V20.8333H6V10.4167H4Z" fill="#111111"/>
<path d="M5 7.29167C4.40666 7.29167 3.82664 7.10839 3.33329 6.76501C2.83994 6.42163 2.45543 5.93357 2.22836 5.36255C2.0013 4.79153 1.94189 4.1632 2.05765 3.55701C2.1734 2.95082 2.45912 2.394 2.87868 1.95696C3.29824 1.51992 3.83279 1.22229 4.41473 1.10171C4.99667 0.981135 5.59987 1.04302 6.14805 1.27954C6.69623 1.51607 7.16476 1.91661 7.49441 2.43051C7.82405 2.94441 8 3.5486 8 4.16667C8 4.99547 7.68393 5.79032 7.12132 6.37638C6.55871 6.96243 5.79565 7.29167 5 7.29167ZM5 3.125C4.80222 3.125 4.60888 3.18609 4.44443 3.30055C4.27998 3.41501 4.15181 3.5777 4.07612 3.76804C4.00043 3.95838 3.98063 4.16782 4.01922 4.36989C4.0578 4.57195 4.15304 4.75756 4.29289 4.90324C4.43275 5.04892 4.61093 5.14813 4.80491 5.18832C4.99889 5.22851 5.19996 5.20788 5.38268 5.12904C5.56541 5.0502 5.72159 4.91669 5.83147 4.74539C5.94135 4.57408 6 4.37269 6 4.16667C6 3.8904 5.89464 3.62545 5.70711 3.4301C5.51957 3.23475 5.26522 3.125 5 3.125Z" fill="#111111"/>
</svg>
