<svg width="25" height="25" viewBox="0 0 25 25" fill="none" xmlns="http://www.w3.org/2000/svg">
<path d="M12.5 13.5417C13.0753 13.5417 13.5417 13.0753 13.5417 12.5C13.5417 11.9247 13.0753 11.4583 12.5 11.4583C11.9247 11.4583 11.4583 11.9247 11.4583 12.5C11.4583 13.0753 11.9247 13.5417 12.5 13.5417Z" fill="#111111"/>
<path d="M16.6667 13.5417C17.242 13.5417 17.7083 13.0753 17.7083 12.5C17.7083 11.9247 17.242 11.4583 16.6667 11.4583C16.0914 11.4583 15.625 11.9247 15.625 12.5C15.625 13.0753 16.0914 13.5417 16.6667 13.5417Z" fill="#111111"/>
<path d="M8.33333 13.5417C8.90863 13.5417 9.375 13.0753 9.375 12.5C9.375 11.9247 8.90863 11.4583 8.33333 11.4583C7.75804 11.4583 7.29167 11.9247 7.29167 12.5C7.29167 13.0753 7.75804 13.5417 8.33333 13.5417Z" fill="#111111"/>
<path d="M19.8646 5.13542C18.1554 3.4151 15.8996 2.34501 13.4861 2.10963C11.0725 1.87424 8.65245 2.48831 6.64311 3.84597C4.63377 5.20363 3.16108 7.2198 2.47892 9.54689C1.79676 11.874 1.94789 14.3661 2.90625 16.5938C3.00614 16.8008 3.03891 17.0339 3 17.2604L2.08333 21.6667C2.04802 21.8356 2.05523 22.0107 2.10432 22.1761C2.15341 22.3416 2.24285 22.4922 2.36458 22.6146C2.46438 22.7137 2.5832 22.7915 2.71389 22.8434C2.84458 22.8953 2.98442 22.9202 3.125 22.9167H3.33333L7.79167 22.0208C8.01826 21.9936 8.24804 22.0259 8.45833 22.1146C10.6859 23.0729 13.1781 23.2241 15.5052 22.5419C17.8323 21.8598 19.8485 20.3871 21.2061 18.3777C22.5638 16.3684 23.1778 13.9483 22.9425 11.5348C22.7071 9.12121 21.637 6.8654 19.9167 5.15625L19.8646 5.13542ZM20.7292 13.8438C20.5255 15.0875 20.0424 16.2688 19.3162 17.2989C18.59 18.3289 17.6396 19.1808 16.5366 19.7905C15.4336 20.4001 14.2067 20.7517 12.9481 20.8187C11.6896 20.8856 10.4323 20.6663 9.27083 20.1771C8.8589 20.0019 8.41639 19.9098 7.96875 19.9063C7.77321 19.9076 7.57811 19.925 7.38542 19.9583L4.44792 20.5521L5.04167 17.6146C5.15992 16.9784 5.08369 16.3214 4.82292 15.7292C4.33374 14.5677 4.11438 13.3104 4.18135 12.0519C4.24831 10.7933 4.59986 9.5664 5.20952 8.46339C5.81919 7.36037 6.6711 6.41 7.70114 5.6838C8.73118 4.9576 9.91252 4.4745 11.1562 4.27083C12.4617 4.05658 13.7995 4.15622 15.0588 4.56152C16.3182 4.96682 17.4629 5.66613 18.3984 6.6016C19.3339 7.53707 20.0332 8.68182 20.4385 9.94117C20.8438 11.2005 20.9434 12.5383 20.7292 13.8438Z" fill="#111111"/>
</svg>
