<svg width="25" height="25" viewBox="0 0 25 25" fill="none" xmlns="http://www.w3.org/2000/svg">
<path d="M19.7917 3.125H5.20833C4.37953 3.125 3.58467 3.45424 2.99862 4.04029C2.41257 4.62634 2.08333 5.4212 2.08333 6.25V14.5833C2.08333 15.4121 2.41257 16.207 2.99862 16.793C3.58467 17.3791 4.37953 17.7083 5.20833 17.7083H11.4583V19.7917H7.29167C7.0154 19.7917 6.75045 19.9014 6.5551 20.0968C6.35975 20.2921 6.25 20.5571 6.25 20.8333C6.25 21.1096 6.35975 21.3746 6.5551 21.5699C6.75045 21.7653 7.0154 21.875 7.29167 21.875H17.7083C17.9846 21.875 18.2496 21.7653 18.4449 21.5699C18.6403 21.3746 18.75 21.1096 18.75 20.8333C18.75 20.5571 18.6403 20.2921 18.4449 20.0968C18.2496 19.9014 17.9846 19.7917 17.7083 19.7917H13.5417V17.7083H19.7917C20.6205 17.7083 21.4153 17.3791 22.0014 16.793C22.5874 16.207 22.9167 15.4121 22.9167 14.5833V6.25C22.9167 5.4212 22.5874 4.62634 22.0014 4.04029C21.4153 3.45424 20.6205 3.125 19.7917 3.125ZM20.8333 14.5833C20.8333 14.8596 20.7236 15.1246 20.5282 15.3199C20.3329 15.5153 20.0679 15.625 19.7917 15.625H5.20833C4.93207 15.625 4.66711 15.5153 4.47176 15.3199C4.27641 15.1246 4.16667 14.8596 4.16667 14.5833V6.25C4.16667 5.97373 4.27641 5.70878 4.47176 5.51343C4.66711 5.31808 4.93207 5.20833 5.20833 5.20833H19.7917C20.0679 5.20833 20.3329 5.31808 20.5282 5.51343C20.7236 5.70878 20.8333 5.97373 20.8333 6.25V14.5833Z" fill="#111111"/>
</svg>
