<svg width="25" height="25" viewBox="0 0 25 25" fill="none" xmlns="http://www.w3.org/2000/svg">
<path d="M8.86458 20.8333H8.78125C7.10246 20.8186 5.44794 20.4308 3.9375 19.6979C3.65966 19.5674 3.43089 19.3514 3.28469 19.0815C3.13849 18.8116 3.08253 18.5019 3.125 18.1979C3.17119 17.8918 3.3129 17.6082 3.5299 17.3874C3.7469 17.1667 4.02809 17.0202 4.33333 16.9688C5.26939 16.8439 6.16988 16.5283 6.97917 16.0417C5.57413 14.9431 4.49245 13.485 3.84877 11.8217C3.20509 10.1584 3.02339 8.35192 3.32292 6.59375C3.36353 6.31526 3.4833 6.05431 3.66797 5.84194C3.85264 5.62957 4.09443 5.47472 4.36458 5.39583C4.62741 5.31329 4.90869 5.30976 5.17351 5.38569C5.43832 5.46162 5.675 5.61365 5.85417 5.82292C6.4625 6.62061 7.22697 7.286 8.10094 7.7785C8.97491 8.27101 9.94006 8.5803 10.9375 8.6875C10.9851 7.46026 11.5125 6.30075 12.4062 5.45833C12.8525 5.03101 13.3793 4.69678 13.9561 4.47511C14.5328 4.25344 15.1478 4.14877 15.7654 4.16719C16.383 4.18561 16.9907 4.32676 17.5532 4.58241C18.1157 4.83806 18.6217 5.20309 19.0417 5.65625C19.1511 5.75299 19.287 5.81464 19.4319 5.83321C19.5768 5.85178 19.7239 5.82642 19.8542 5.76042C20.1025 5.64328 20.3791 5.59918 20.6516 5.63328C20.924 5.66737 21.1812 5.77824 21.3931 5.95296C21.6049 6.12769 21.7627 6.35905 21.848 6.62006C21.9334 6.88107 21.9427 7.16096 21.875 7.42708C21.6347 8.41679 21.1795 9.34145 20.5417 10.1354C20.4011 13.0987 19.0946 15.8862 16.9072 17.8902C14.7198 19.8942 11.8288 20.9521 8.86458 20.8333ZM8.86458 18.75H8.94792C10.159 18.7917 11.3664 18.5925 12.4999 18.164C13.6335 17.7356 14.6707 17.0864 15.5515 16.254C16.4323 15.4217 17.1391 14.4228 17.6309 13.3153C18.1227 12.2078 18.3898 11.0136 18.4167 9.80208C18.4339 9.47005 18.5708 9.1555 18.8021 8.91667C19.0561 8.59505 19.2728 8.24558 19.4479 7.875C19.0727 7.87571 18.7015 7.79722 18.3586 7.64464C18.0158 7.49207 17.709 7.26885 17.4583 6.98958C17.2173 6.75058 16.931 6.56206 16.6162 6.43507C16.3014 6.30807 15.9644 6.24516 15.625 6.25C15.2822 6.24114 14.941 6.30007 14.621 6.42341C14.301 6.54675 14.0086 6.73208 13.7604 6.96875C13.4256 7.28646 13.1801 7.68653 13.0485 8.12892C12.9169 8.57132 12.9037 9.04052 13.0104 9.48958L13.2812 10.6771L12.0625 10.7604C10.8136 10.8623 9.55757 10.6914 8.38126 10.2597C7.20496 9.82808 6.13655 9.14589 5.25 8.26042C5.21198 9.63166 5.555 10.9866 6.24093 12.1746C6.92686 13.3625 7.92882 14.337 9.13542 14.9896L10.125 15.5521L9.46875 16.4896C8.75905 17.4203 7.78665 18.117 6.67708 18.4896C7.38887 18.668 8.12039 18.7555 8.85417 18.75H8.86458Z" fill="#111111"/>
</svg>
